# xmcd CD database file
#
# Track frame offsets:
#	183
#	117313
#	145540
#	172318
#	211998
#
# Disc length: 3717 seconds
#
# Revision: 0
# Processed by: cddbd v1.5.1PL0 Copyright (c) Steve Scherf et al.
# Submitted via: CDex 1.51
#
DISCID=460e8305
DTITLE=ハイティンク(c)／コンセルトヘボウ管弦楽団 - ショスタコーヴィチ／交響曲第８番ハ短調／ハイティンク(c)
DYEAR=1982
DGENRE=Symphony
TTITLE0=ショスタコーヴィチ／交響曲第８番ハ短調Op65?Adagio
TTITLE1=ショスタコーヴィチ／交響曲第８番ハ短調Op65?Allegretto
TTITLE2=ショスタコーヴィチ／交響曲第８番ハ短調Op65?Allegro non troppo
TTITLE3=ショスタコーヴィチ／交響曲第８番ハ短調Op65?Largo
TTITLE4=ショスタコーヴィチ／交響曲第８番ハ短調Op65?Allegretto
EXTD=YEAR: 1982
EXTT0=
EXTT1=
EXTT2=
EXTT3=
EXTT4=
PLAYORDER=
